<svg width="392" height="257" viewBox="0 0 392 257" fill="none" xmlns="http://www.w3.org/2000/svg">
<g filter="url(#filter0_d_102_33)">
<path d="M235.562 224.735C233.629 224.884 231.677 224.959 229.705 224.96H92.1812C82.7149 224.994 73.3348 223.24 64.579 219.8C55.8232 216.36 47.8639 211.301 41.1577 204.913C34.4516 198.525 29.1305 190.934 25.4997 182.575C21.869 174.216 20 165.254 20 156.203C20 147.152 21.869 138.191 25.4997 129.832C29.1305 121.473 34.4516 113.882 41.1577 107.494C47.8639 101.106 55.8232 96.0468 64.579 92.6066C73.3348 89.1664 82.7149 87.4128 92.1812 87.4466H143.457C160.081 52.4766 198.368 28 242.941 28C302.768 28 351.268 72.0913 351.268 126.48C351.268 180.869 302.768 224.96 242.941 224.96C240.461 224.96 238.002 224.885 235.562 224.735Z" fill="url(#paint0_linear_102_33)"/>
<path d="M242.941 224.004C250.227 224.004 257.508 223.337 264.582 222.021C271.475 220.739 278.255 218.825 284.734 216.334C291.094 213.888 297.229 210.861 302.967 207.337C308.65 203.846 313.994 199.838 318.851 195.423C323.706 191.009 328.114 186.152 331.953 180.987C335.827 175.774 339.154 170.201 341.842 164.424C344.579 158.541 346.681 152.384 348.09 146.126C349.535 139.704 350.268 133.094 350.268 126.48C350.268 119.866 349.535 113.256 348.09 106.834C346.681 100.575 344.579 94.4189 341.842 88.5358C339.154 82.7584 335.827 77.1858 331.953 71.9728C328.114 66.8081 323.706 61.9513 318.851 57.5371C313.994 53.1222 308.65 49.1138 302.967 45.6234C297.229 42.099 291.094 39.0719 284.734 36.6262C278.255 34.135 271.475 32.2216 264.582 30.9393C257.508 29.6234 250.227 28.9561 242.941 28.9561C221.57 28.9561 200.931 34.6472 183.255 45.4142C174.734 50.6043 167.078 56.8689 160.498 64.034C153.876 71.2443 148.449 79.2545 144.367 87.8419L144.1 88.4024H143.457H92.1809C82.6073 88.4024 73.3207 90.1949 64.5788 93.7302C60.3772 95.4293 56.3246 97.5325 52.5337 99.9812C48.7785 102.407 45.2473 105.192 42.0381 108.261C38.8289 111.329 35.9154 114.706 33.3784 118.296C30.8173 121.92 28.6176 125.795 26.8405 129.812C23.143 138.171 21.2682 147.05 21.2682 156.203C21.2682 165.357 23.143 174.236 26.8405 182.594C28.6176 186.611 30.8173 190.486 33.3784 194.111C35.9154 197.701 38.8289 201.077 42.0381 204.146C45.2473 207.214 48.7785 210 52.5337 212.425C56.3246 214.874 60.3772 216.977 64.5788 218.676C73.3207 222.212 82.6073 224.004 92.1809 224.004H229.705C231.628 224.004 233.572 223.929 235.482 223.782L235.554 223.777L235.626 223.781C238.046 223.929 240.507 224.004 242.941 224.004ZM242.941 224.96C240.461 224.96 238 224.884 235.563 224.735C233.632 224.884 231.676 224.96 229.705 224.96H92.1809C52.4648 224.96 20.2682 194.176 20.2682 156.203C20.2682 118.23 52.4648 87.4463 92.1809 87.4463H143.457C160.081 52.4722 198.366 28 242.941 28C302.768 28 351.268 72.0914 351.268 126.48C351.268 180.869 302.768 224.96 242.941 224.96Z" fill="white"/>
</g>
<defs>
<filter id="filter0_d_102_33" x="0" y="0" width="391.268" height="256.96" filterUnits="userSpaceOnUse" color-interpolation-filters="sRGB">
<feFlood flood-opacity="0" result="BackgroundImageFix"/>
<feColorMatrix in="SourceAlpha" type="matrix" values="0 0 0 0 0 0 0 0 0 0 0 0 0 0 0 0 0 0 127 0" result="hardAlpha"/>
<feOffset dx="10" dy="2"/>
<feGaussianBlur stdDeviation="15"/>
<feColorMatrix type="matrix" values="0 0 0 0 0.501961 0 0 0 0 0.501961 0 0 0 0 0.501961 0 0 0 0.302 0"/>
<feBlend mode="normal" in2="BackgroundImageFix" result="effect1_dropShadow_102_33"/>
<feBlend mode="normal" in="SourceGraphic" in2="effect1_dropShadow_102_33" result="shape"/>
</filter>
<linearGradient id="paint0_linear_102_33" x1="154.164" y1="52.817" x2="215.094" y2="237.326" gradientUnits="userSpaceOnUse">
<stop stop-color="white"/>
<stop offset="0.9999" stop-color="#FDFDFD" stop-opacity="0.813438"/>
<stop offset="1" stop-color="#F7F7F7" stop-opacity="0.204"/>
</linearGradient>
</defs>
</svg>
