<svg width="366" height="313" viewBox="0 0 366 313" fill="none" xmlns="http://www.w3.org/2000/svg">
<path d="M166.227 186.812C166.227 186.812 258.213 191.823 299.011 179.882C339.808 167.942 339.75 105.974 299.011 90.6988C258.272 75.4233 244.348 130.024 244.348 130.024" stroke="white" stroke-width="16" stroke-linecap="round"/>
<path d="M8.28622 80.1162C8.28622 80.1162 95.3391 110.487 137.822 110.343C180.304 110.199 216.517 73.2324 181.533 47.2309C146.55 21.2294 98.912 47.2304 98.912 47.2304" stroke="white" stroke-width="16" stroke-linecap="round"/>
<path d="M8 253.743C8 253.743 146.267 241.153 207.221 253.743C268.176 266.333 248.767 302.448 219.879 304.106C190.991 305.764 164.328 286.627 164.328 286.627" stroke="white" stroke-width="16" stroke-linecap="round"/>
<path d="M302.29 253.65H357.263" stroke="white" stroke-width="16" stroke-linecap="round"/>
<path d="M51.49 187.638H106.463" stroke="white" stroke-width="16" stroke-linecap="round"/>
</svg>
